<?xml version="1.0" encoding="UTF-8"?>
<svg xmlns="http://www.w3.org/2000/svg" version="1.2" baseProfile="tiny-ps" viewBox="0 0 256 256">
<title>MIS Mechanical Ltd.</title>
<desc>MIS Mechanical Ltd. Plumbing and heating company logo.</desc>
<path fill="#001026" d="M 237,57 233,57 227,64 224,61 219,73 216,73 215,81 228,75 236,92 232,99 236,100 235,108 237,112 235,116 236,123 233,124 237,133 235,135 239,136 227,160 207,151 221,163 225,176 229,179 219,191 204,184 203,180 197,179 184,167 199,187 196,189 195,185 189,192 179,189 172,176 172,185 168,189 171,187 171,192 165,197 159,199 167,197 171,200 172,195 179,193 181,203 181,199 187,195 187,200 189,193 197,197 205,193 211,196 217,195 223,189 227,191 233,187 232,179 236,175 241,179 243,173 239,172 241,168 245,168 241,153 249,145 247,141 249,139 247,140 245,135 249,123 251,127 251,119 247,117 251,108 248,101 244,100 249,87 244,81 244,75 249,75 245,72 248,67 244,69 245,65 243,61 239,63 Z"/>
<path fill="#000f24" d="M 0,0 0,243 5,247 3,252 5,249 7,253 5,249 9,248 11,253 12,251 17,255 76,255 60,249 59,252 49,240 47,241 41,236 45,232 51,233 39,231 39,223 45,220 41,216 27,220 21,216 21,197 27,192 35,197 41,195 24,191 20,187 25,179 33,187 47,192 56,181 52,185 51,183 49,187 41,188 39,184 37,187 29,177 31,171 28,168 28,171 23,172 23,176 16,177 13,175 16,171 12,157 19,156 16,153 13,156 11,152 13,151 9,151 12,148 9,145 12,143 9,141 12,139 11,133 16,127 11,125 15,119 11,115 13,113 13,107 9,99 13,95 8,89 8,72 15,61 12,57 17,52 28,56 31,37 41,24 48,23 44,21 31,31 27,29 28,27 23,28 21,23 27,23 28,17 35,23 28,16 39,19 36,15 40,15 44,9 47,13 47,8 52,3 56,8 60,5 53,0 Z"/>
<path fill="#000f24" d="M 255,0 215,0 207,4 209,9 212,5 221,17 215,24 219,27 204,36 203,44 204,39 217,32 216,29 220,25 224,27 225,24 227,28 231,25 232,36 227,39 231,41 229,57 225,61 237,56 239,61 243,60 247,65 244,68 248,69 245,71 248,73 245,75 245,81 251,87 245,100 249,101 248,117 252,121 247,139 251,143 247,144 249,147 243,153 247,165 240,172 243,175 233,179 236,183 231,189 212,196 219,199 225,193 232,195 236,205 235,215 229,219 225,217 225,220 212,219 216,224 213,225 216,232 209,233 211,243 203,245 199,253 193,251 184,255 232,255 233,252 236,255 245,255 244,251 249,245 247,244 255,239 Z"/>
<path fill="#001026" d="M 23,23 23,27 29,27 28,29 37,29 44,24 40,24 44,20 47,23 53,20 61,21 81,43 84,40 77,32 75,23 79,16 83,17 87,13 92,16 93,13 88,13 91,9 100,11 103,7 107,8 120,3 124,5 137,4 140,7 141,1 159,8 161,13 171,11 183,15 181,17 185,21 176,37 185,25 193,21 208,20 217,25 215,29 217,31 205,39 203,45 201,41 203,47 209,51 228,36 232,37 229,29 235,25 228,29 224,24 224,28 217,27 215,23 221,19 213,11 211,3 213,0 203,0 203,4 197,0 55,0 61,5 57,8 52,4 47,15 45,11 40,16 37,15 39,20 35,16 29,16 37,21 35,24 28,19 27,24 24,25 Z"/>
<path fill="#446075" d="M 75,92 75,100 81,100 79,103 83,107 85,104 84,111 85,108 87,113 83,117 83,124 85,127 92,125 100,133 97,140 105,145 115,140 120,141 124,149 135,149 137,143 149,140 152,145 160,141 161,129 167,125 173,127 177,121 172,113 175,111 173,104 176,107 180,103 177,100 184,100 184,96 183,101 181,97 173,99 171,108 169,105 171,111 168,109 169,113 165,116 167,119 153,132 151,131 141,137 124,137 107,132 89,113 89,104 87,105 88,92 88,99 85,99 87,87 83,92 Z"/>
<path fill="#00142d" d="M 63,184 67,191 69,188 75,192 80,185 77,183 84,172 85,175 85,160 89,156 95,156 104,163 112,163 112,165 119,156 125,156 128,160 132,156 139,156 143,163 151,156 153,159 165,156 172,163 168,169 171,176 177,180 179,188 189,191 195,184 197,187 183,168 184,165 188,169 188,167 173,156 172,152 160,144 152,148 141,143 133,153 125,153 120,145 112,143 107,148 100,145 100,143 79,161 81,163 67,176 Z"/>
<path fill="#001026" d="M 17,53 13,57 16,61 9,72 9,89 15,95 11,99 15,107 12,115 16,119 8,127 11,129 12,125 17,127 13,129 11,137 13,137 11,141 13,143 9,147 13,147 11,149 13,155 16,152 20,156 19,159 13,157 16,167 13,167 17,171 15,175 20,176 23,171 31,169 49,151 36,155 27,136 28,112 24,107 24,100 27,99 23,89 25,88 24,84 27,84 24,81 25,72 32,71 67,95 56,81 45,73 45,76 43,75 41,69 45,65 41,63 37,65 29,56 25,57 Z"/>
<path fill="#001026" d="M 211,237 203,231 200,235 196,231 193,233 173,232 169,233 191,235 193,240 188,244 185,241 181,245 177,244 177,247 169,251 163,249 136,255 131,252 97,252 93,248 88,251 71,239 73,233 79,233 76,232 68,235 64,232 63,235 61,232 57,235 52,232 51,235 43,235 59,251 72,251 77,255 183,255 193,249 199,252 203,244 209,243 Z"/>
<path fill="#000a1d" d="M 115,53 92,81 89,99 91,105 93,105 93,113 104,127 116,133 139,135 147,132 164,116 169,97 167,96 167,104 159,120 149,125 153,116 152,112 149,123 136,133 120,132 111,124 108,116 108,127 93,108 92,88 104,65 108,65 105,79 115,95 127,79 123,85 121,77 128,67 129,69 129,64 116,91 105,76 109,60 Z"/>
<path fill="#00142d" d="M 188,19 181,19 181,15 171,12 161,15 159,9 141,3 140,8 137,5 124,7 120,4 107,9 103,8 100,12 91,11 85,17 79,17 76,23 84,41 91,41 97,49 96,47 107,44 112,37 111,32 131,16 137,27 144,27 155,44 157,43 165,48 172,45 173,48 172,44 175,44 173,41 177,37 175,35 184,19 Z"/>
<path fill="#000f24" d="M 209,220 203,217 192,219 185,213 187,196 183,199 183,215 179,219 159,219 157,216 153,219 148,216 147,219 143,216 137,219 151,221 152,219 153,221 157,219 169,221 172,219 176,221 183,215 187,219 185,221 188,219 192,221 193,219 196,221 200,219 203,223 207,219 Z"/>
<path fill="#00142d" d="M 189,81 181,87 185,92 179,95 185,95 187,101 179,105 177,113 181,120 177,123 177,128 209,151 212,156 211,152 227,159 237,136 233,135 236,133 232,124 235,123 233,116 236,112 233,108 235,100 231,99 235,92 228,76 211,84 205,76 200,77 200,80 Z"/>
<path fill="#00142d" d="M 192,240 191,236 179,236 172,232 152,235 149,231 147,235 143,231 143,223 143,231 133,235 124,231 119,235 113,232 109,235 107,232 89,236 79,232 77,236 73,235 72,237 88,249 93,247 97,251 131,251 136,253 167,248 167,251 185,240 188,243 Z"/>
<path fill="#000f24" d="M 48,217 49,221 57,223 63,219 64,221 68,219 71,221 80,219 83,221 88,219 96,221 99,219 101,223 103,219 108,221 135,219 135,216 132,219 127,216 120,219 116,216 113,219 103,219 100,216 97,219 92,216 87,219 81,216 77,219 68,216 64,219 Z"/>
<path fill="#001026" d="M 81,160 79,159 69,171 68,168 61,177 59,176 52,184 55,185 47,193 33,188 25,180 21,187 40,193 57,195 56,197 61,199 64,196 80,199 80,195 87,192 83,191 85,189 84,173 79,183 81,185 75,193 69,189 67,192 61,184 65,176 Z"/>
<path fill="#446075" d="M 93,53 92,56 88,53 81,56 69,67 63,64 57,71 53,69 57,71 55,75 57,81 65,89 63,87 65,85 71,93 71,89 79,84 73,81 71,87 67,81 68,76 75,75 80,80 75,73 84,60 91,61 95,57 Z"/>
<path fill="#446075" d="M 168,131 165,133 168,139 164,144 205,181 217,183 223,171 221,176 216,165 204,157 207,160 204,161 187,143 185,147 177,133 179,136 175,137 172,133 175,131 172,133 Z"/>
<path fill="#446075" d="M 149,107 144,121 135,127 133,124 141,115 141,112 137,115 139,105 139,112 132,121 120,119 109,109 111,107 109,117 112,117 112,123 119,129 133,132 143,128 148,121 Z"/>
<path fill="#00142d" d="M 27,72 27,88 24,89 28,99 25,100 25,107 29,112 28,136 36,153 49,149 48,153 80,128 81,123 77,120 81,113 80,105 72,103 69,96 72,95 69,96 63,89 65,92 63,93 37,75 Z"/>
<path fill="#446075" d="M 93,133 91,131 84,136 83,133 77,141 76,139 52,163 47,163 57,152 43,163 44,159 33,169 35,179 43,184 55,179 95,144 93,140 92,143 89,140 Z"/>
<path fill="#446075" d="M 127,35 127,49 119,60 117,55 112,61 109,80 116,89 120,75 129,63 140,80 140,85 144,88 149,79 149,68 144,57 144,64 141,67 137,64 137,45 Z"/>
<path fill="#001026" d="M 149,221 139,221 136,219 139,217 135,220 120,220 124,223 124,229 129,232 125,229 131,220 135,220 141,231 141,223 147,220 149,224 Z"/>
<path fill="#446075" d="M 31,53 32,56 36,52 35,49 48,36 56,40 53,44 56,41 64,45 65,49 68,49 64,45 67,37 80,43 65,27 68,32 60,27 49,27 33,41 Z"/>
<path fill="#000f24" d="M 171,188 161,195 151,195 145,191 143,192 143,189 140,193 144,196 143,200 145,196 152,196 152,199 157,200 165,196 Z"/>
<path fill="#000a1d" d="M 99,49 95,51 96,59 91,64 83,63 77,72 81,79 81,87 73,88 73,101 73,91 81,88 83,83 77,73 85,63 91,65 97,59 96,52 Z"/>
<path fill="#446075" d="M 155,71 153,84 147,92 151,100 160,101 153,123 159,117 165,101 165,96 151,95 157,85 160,91 164,91 163,83 Z"/>
<path fill="#96d0e2" d="M 89,160 89,189 95,189 96,173 105,187 111,184 117,173 119,189 125,189 124,160 117,161 107,179 97,163 Z"/>
<path fill="#96d0e2" d="M 147,201 143,205 143,211 148,215 155,213 153,211 148,212 145,208 148,204 153,205 155,203 Z"/>
<path fill="#446075" d="M 145,51 165,75 171,91 183,91 175,85 173,79 179,75 173,65 167,67 159,59 161,52 153,47 Z"/>
<path fill="#96d0e2" d="M 167,141 203,173 208,164 216,164 221,175 220,167 177,131 175,132 212,161 201,172 Z"/>
<path fill="#000a1d" d="M 255,240 252,244 248,244 251,245 248,249 245,248 248,249 245,251 247,255 255,255 Z"/>
<path fill="#96d0e2" d="M 71,33 63,25 52,24 41,29 33,43 39,35 45,37 44,33 48,29 56,28 49,28 49,25 60,25 Z"/>
<path fill="#96d0e2" d="M 27,197 27,215 29,215 31,204 36,212 43,204 44,215 47,215 47,197 43,197 37,207 Z"/>
<path fill="#96d0e2" d="M 84,196 84,215 87,215 89,204 93,205 93,213 97,215 97,204 95,201 88,203 87,196 Z"/>
<path fill="#96d0e2" d="M 212,25 195,25 183,33 172,60 176,60 184,72 180,84 196,75 215,71 197,43 199,37 Z"/>
<path fill="#001026" d="M 93,197 99,199 99,201 105,196 113,200 117,197 131,199 132,196 109,189 97,192 Z"/>
<path fill="#96d0e2" d="M 89,45 83,45 68,55 52,76 69,92 53,75 61,68 63,63 69,65 87,52 92,55 93,48 Z"/>
<path fill="#000a1d" d="M 79,45 73,44 76,47 68,53 59,45 47,51 56,49 57,53 61,51 65,55 61,60 Z"/>
<path fill="#96d0e2" d="M 117,201 119,215 121,215 124,204 128,205 128,215 132,213 129,201 Z"/>
<path fill="#446075" d="M 207,73 197,65 189,75 185,73 187,77 184,79 195,73 201,75 200,72 Z"/>
<path fill="#96d0e2" d="M 160,201 160,204 167,205 160,208 159,213 171,215 171,204 Z"/>
<path fill="#96d0e2" d="M 103,201 103,204 111,205 103,208 101,213 113,215 113,204 Z"/>
<path fill="#96d0e2" d="M 52,203 51,211 56,215 63,213 55,209 64,208 64,204 61,201 Z"/>
<path fill="#96d0e2" d="M 229,196 227,196 225,203 219,201 215,205 219,215 229,215 Z"/>
<path fill="#446075" d="M 179,40 177,53 180,56 191,48 195,51 192,48 187,49 187,45 Z"/>
<path fill="#000a1d" d="M 141,164 141,189 145,180 160,183 148,177 143,172 144,164 Z"/>
<path fill="#000a1d" d="M 139,31 136,37 131,36 133,32 129,35 140,48 139,64 141,64 Z"/>
<path fill="#96d0e2" d="M 71,201 68,212 77,215 80,212 73,212 71,207 80,203 Z"/>
<path fill="#96d0e2" d="M 205,199 203,203 205,212 212,215 208,209 212,201 Z"/>
<path fill="#96d0e2" d="M 189,197 189,213 201,215 201,212 193,211 193,197 Z"/>
<path fill="#446075" d="M 99,91 99,101 96,101 96,97 95,107 107,124 99,103 Z"/>
<path fill="#001026" d="M 156,44 165,51 165,59 168,60 175,45 165,49 Z"/>
<path fill="#00142d" d="M 124,100 124,104 116,109 123,119 125,117 Z"/>
<path fill="#96d0e2" d="M 175,196 175,215 177,215 179,196 Z"/>
<path fill="#96d0e2" d="M 132,160 132,189 139,189 139,160 Z"/>
<path fill="#000a1d" d="M 211,168 208,176 215,177 216,169 Z"/>
<path fill="#96d0e2" d="M 53,39 49,39 32,57 36,60 55,41 Z"/>
<path fill="#000f24" d="M 56,51 49,51 37,64 41,61 44,65 Z"/>
<path fill="#96d0e2" d="M 225,43 212,53 215,64 223,56 Z"/>
<path fill="#000a1d" d="M 40,169 40,177 47,177 48,171 Z"/>
<path fill="#96d0e2" d="M 61,53 45,69 49,73 61,59 Z"/>
<path fill="#96d0e2" d="M 84,132 80,131 35,169 Z"/>
</svg>